<svg width="18" height="18" viewBox="0 0 18 18" fill="none" xmlns="http://www.w3.org/2000/svg">
<g clip-path="url(#clip0_0_128)">
<path d="M13.078 7.87471C11.3723 7.87471 9.98435 9.26262 9.98435 10.9683C9.98435 12.6741 11.3723 14.062 13.078 14.062C14.7837 14.062 16.1716 12.6741 16.1716 10.9683C16.1716 9.26262 14.7837 7.87471 13.078 7.87471ZM14.3896 10.472C13.4903 11.8211 13.7453 11.4386 13.2647 12.1594C13.092 12.4183 12.7425 12.487 12.4846 12.3151L11.6409 11.7527C11.3825 11.5804 11.3129 11.2313 11.4851 10.9726C11.6574 10.7142 12.0065 10.6446 12.2652 10.8168L12.6407 11.0671C13.5377 9.72171 13.4895 9.75894 13.6405 9.67288C14.1528 9.37653 14.7188 9.97747 14.3896 10.472ZM10.5468 14.3411V17.4369C10.5468 17.8678 11.0136 18.1394 11.3884 17.9252L13.078 16.9598L14.7675 17.9252C15.1408 18.1391 15.6091 17.869 15.6091 17.4369V14.3411C14.1106 15.4686 12.0476 15.4702 10.5468 14.3411ZM14.2029 6.90232V1.22163C14.2029 0.548066 13.6549 0 12.9813 0H3.05004C2.37647 0 1.82841 0.548066 1.82841 1.22163V14.2465C1.82841 14.9201 2.37647 15.4682 3.05004 15.4682H9.42188C9.42188 13.0477 9.41811 13.1975 9.43067 13.0861C7.5477 9.8579 10.546 5.88677 14.2029 6.90232ZM5.20328 2.8124H9.98435C10.2951 2.8124 10.5468 3.06411 10.5468 3.37487C10.5468 3.68564 10.2951 3.93735 9.98435 3.93735H5.20328C4.89251 3.93735 4.6408 3.68564 4.6408 3.37487C4.6408 3.06411 4.89251 2.8124 5.20328 2.8124ZM8.01568 8.43719H5.20328C4.89251 8.43719 4.6408 8.18548 4.6408 7.87471C4.6408 7.56394 4.89251 7.31223 5.20328 7.31223H8.01568C8.32645 7.31223 8.57816 7.56394 8.57816 7.87471C8.57816 8.18548 8.32645 8.43719 8.01568 8.43719ZM5.20328 6.18727C4.89251 6.18727 4.6408 5.93556 4.6408 5.62479C4.6408 5.31402 4.89251 5.06231 5.20328 5.06231H9.98435C10.2951 5.06231 10.5468 5.31402 10.5468 5.62479C10.5468 5.93556 10.2951 6.18727 9.98435 6.18727H5.20328Z" fill="#55ADFF"/>
</g>
<defs>
<clipPath id="clip0_0_128">
<rect width="18" height="18" fill="white"/>
</clipPath>
</defs>
</svg>
