<svg width="20" height="20" viewBox="0 0 20 20" fill="none" xmlns="http://www.w3.org/2000/svg">
<g clip-path="url(#clip0_0_331)">
<path d="M5.83333 3.33333C9.05499 3.33333 11.6667 2.58714 11.6667 1.66667C11.6667 0.746192 9.05499 0 5.83333 0C2.61167 0 0 0.746192 0 1.66667C0 2.58714 2.61167 3.33333 5.83333 3.33333Z" fill="#557AFF"/>
<path d="M5.83333 7.08333C9.055 7.08333 11.6667 6.3375 11.6667 5.41666V3.5275C9.83 4.51166 6.67 4.58333 5.83333 4.58333C4.99667 4.58333 1.83667 4.51166 0 3.5275V5.41666C0 6.3375 2.61167 7.08333 5.83333 7.08333Z" fill="#557AFF"/>
<path d="M7.91667 15.725V18.2167C7.275 18.2917 6.56667 18.3333 5.83333 18.3333C2.60833 18.3333 0 17.5833 0 16.6667V14.775C1.83333 15.7583 5 15.8333 5.83333 15.8333C6.19167 15.8333 6.98333 15.8167 7.91667 15.725Z" fill="#557AFF"/>
<path d="M8.00833 11.9667C7.98333 12.0417 7.96667 12.1333 7.95 12.2167L7.91667 12.1917V14.4667C7.275 14.5417 6.56667 14.5833 5.83333 14.5833C2.60833 14.5833 0 13.8333 0 12.9167V11.025C1.83333 12.0083 5 12.0833 5.83333 12.0833C6.2 12.0833 7.03333 12.0667 8.00833 11.9667Z" fill="#557AFF"/>
<path d="M5.83333 8.33333C4.99667 8.33333 1.83667 8.26166 0 7.2775V9.16666C0 10.0875 2.61167 10.8333 5.83333 10.8333C9.055 10.8333 11.6667 10.0875 11.6667 9.16666V7.2775C9.83 8.26166 6.67 8.33333 5.83333 8.33333Z" fill="#557AFF"/>
<path d="M14.5834 14.1667C17.5749 14.1667 20 13.4205 20 12.5C20 11.5795 17.5749 10.8333 14.5834 10.8333C11.5918 10.8333 9.16669 11.5795 9.16669 12.5C9.16669 13.4205 11.5918 14.1667 14.5834 14.1667Z" fill="#557AFF"/>
<path d="M14.5834 17.0833C17.575 17.0833 20 16.3375 20 15.4167V14.3608C18.295 15.3458 15.36 15.4167 14.5834 15.4167C13.8067 15.4167 10.8717 15.345 9.16669 14.3608V15.4167C9.16669 16.3375 11.5917 17.0833 14.5834 17.0833Z" fill="#557AFF"/>
<path d="M14.5834 18.3333C13.8067 18.3333 10.8717 18.2617 9.16669 17.2775V18.3333C9.16669 19.2542 11.5917 20 14.5834 20C17.575 20 20 19.2542 20 18.3333V17.2775C18.295 18.2617 15.36 18.3333 14.5834 18.3333Z" fill="#557AFF"/>
</g>
<defs>
<clipPath id="clip0_0_331">
<rect width="20" height="20" fill="white"/>
</clipPath>
</defs>
</svg>
