<svg width="23" height="23" viewBox="0 0 23 23" fill="none" xmlns="http://www.w3.org/2000/svg">
<g clip-path="url(#clip0_0_276)">
<path d="M21.4706 11.7979C21.3781 11.6085 21.3781 11.3914 21.4706 11.2021L22.3285 9.44723C22.8061 8.47014 22.4276 7.30555 21.4669 6.79582L19.7415 5.88032C19.5554 5.78158 19.4277 5.60585 19.3913 5.39836L19.0539 3.47441C18.8659 2.40321 17.8751 1.68339 16.7984 1.83571L14.8644 2.10929C14.6557 2.13876 14.4493 2.07164 14.2978 1.92515L12.894 0.567083C12.1123 -0.189127 10.8877 -0.189172 10.1061 0.567083L8.7022 1.92529C8.55073 2.07182 8.34431 2.1388 8.13561 2.10942L6.2016 1.83585C5.1246 1.68343 4.13408 2.40334 3.94617 3.47454L3.60872 5.3984C3.57229 5.60594 3.44467 5.78163 3.25856 5.88041L1.53312 6.79591C0.572426 7.30559 0.194006 8.47028 0.671612 9.44737L1.52939 11.2022C1.62193 11.3915 1.62193 11.6087 1.52939 11.798L0.671567 13.5528C0.193961 14.5299 0.57238 15.6945 1.53307 16.2042L3.25851 17.1197C3.44467 17.2184 3.57229 17.3942 3.60872 17.6017L3.94617 19.5256C4.11723 20.5008 4.95341 21.1847 5.91441 21.1846C6.00906 21.1846 6.10511 21.1779 6.20164 21.1643L8.13565 20.8907C8.34422 20.8611 8.55077 20.9283 8.70225 21.0748L10.1061 22.4329C10.497 22.8111 10.9984 23.0001 11.5 23C12.0015 23 12.5032 22.811 12.8939 22.4329L14.2978 21.0748C14.4493 20.9283 14.6558 20.8614 14.8644 20.8907L16.7984 21.1643C17.8756 21.3166 18.8659 20.5968 19.0539 19.5256L19.3913 17.6017C19.4278 17.3942 19.5554 17.2185 19.7415 17.1197L21.4669 16.2042C22.4276 15.6945 22.8061 14.5298 22.3285 13.5528L21.4706 11.7979ZM8.8469 5.53056C10.1879 5.53056 11.2789 6.62157 11.2789 7.96257C11.2789 9.30357 10.1879 10.3946 8.8469 10.3946C7.5059 10.3946 6.41489 9.30357 6.41489 7.96257C6.41489 6.62157 7.5059 5.53056 8.8469 5.53056ZM7.59161 16.3463C7.4621 16.4758 7.29234 16.5406 7.12263 16.5406C6.95291 16.5406 6.78311 16.4759 6.65364 16.3463C6.39463 16.0873 6.39463 15.6673 6.65364 15.4083L15.4084 6.6536C15.6673 6.39458 16.0874 6.39458 16.3464 6.6536C16.6054 6.91262 16.6054 7.33259 16.3464 7.59161L7.59161 16.3463ZM14.153 17.4695C12.812 17.4695 11.721 16.3785 11.721 15.0375C11.721 13.6965 12.812 12.6054 14.153 12.6054C15.494 12.6054 16.585 13.6965 16.585 15.0375C16.585 16.3785 15.494 17.4695 14.153 17.4695Z" fill="#557AFF"/>
<path d="M14.153 13.932C13.5435 13.932 13.0475 14.4279 13.0475 15.0375C13.0475 15.647 13.5434 16.1429 14.153 16.1429C14.7626 16.1429 15.2585 15.647 15.2585 15.0375C15.2585 14.4279 14.7626 13.932 14.153 13.932Z" fill="#557AFF"/>
<path d="M8.84689 6.85712C8.23734 6.85712 7.74146 7.35301 7.74146 7.96255C7.74146 8.57209 8.23734 9.06802 8.84689 9.06802C9.45643 9.06802 9.95236 8.57213 9.95236 7.96255C9.95232 7.35305 9.45643 6.85712 8.84689 6.85712Z" fill="#557AFF"/>
</g>
<defs>
<clipPath id="clip0_0_276">
<rect width="23" height="23" fill="white"/>
</clipPath>
</defs>
</svg>
