<svg width="19" height="19" viewBox="0 0 19 19" fill="none" xmlns="http://www.w3.org/2000/svg">
<g clip-path="url(#clip0_0_120)">
<path d="M9.49932 4.45287C9.80674 4.45287 10.056 4.20363 10.056 3.8962V1.92932C10.056 1.62189 9.80674 1.37265 9.49932 1.37265C9.19189 1.37265 8.94265 1.62189 8.94265 1.92932V3.8962C8.94265 4.20363 9.19189 4.45287 9.49932 4.45287Z" fill="#ED9C3A"/>
<path d="M6.42904 5.39853C6.6464 5.61593 6.99888 5.61596 7.21628 5.39853C7.43368 5.18113 7.43368 4.82869 7.21628 4.61129L5.82551 3.22048C5.60815 3.00308 5.25567 3.00308 5.03827 3.22048C4.82087 3.43788 4.82087 3.79032 5.03827 4.00772L6.42904 5.39853Z" fill="#ED9C3A"/>
<path d="M12.1759 5.56156C12.3184 5.56156 12.4609 5.50723 12.5695 5.3985L13.9604 4.00769C14.1778 3.79029 14.1778 3.43785 13.9604 3.22045C13.743 3.00305 13.3905 3.00305 13.1731 3.22045L11.7823 4.61126C11.4306 4.96296 11.6845 5.56156 12.1759 5.56156Z" fill="#ED9C3A"/>
<path d="M14.3619 11.7637L12.9995 7.40415C12.9269 7.17176 12.7116 7.01352 12.4682 7.01352H6.53043C6.28694 7.01352 6.07174 7.17176 5.99911 7.40415L4.63673 11.7637H14.3619Z" fill="#ED9C3A"/>
<path d="M17.7158 12.8771C17.0328 12.8771 12.1116 12.8771 11.393 12.8771C9.94984 17.4951 10.056 17.1277 10.056 17.218C10.056 17.444 10.2392 17.6273 10.4652 17.6273H18.43C18.8323 17.6273 19.0836 17.2541 18.9744 16.9046L17.7158 12.8771Z" fill="#ED9C3A"/>
<path d="M8.92402 17.096L7.60561 12.8771C6.84491 12.8771 1.94859 12.8771 1.28282 12.8771L0.0280191 16.8924C-0.0917753 17.2757 0.189007 17.6273 0.555553 17.6273H8.53342C8.80927 17.6273 9.00629 17.3593 8.92402 17.096Z" fill="#ED9C3A"/>
</g>
<defs>
<clipPath id="clip0_0_120">
<rect width="19" height="19" fill="white"/>
</clipPath>
</defs>
</svg>
