<svg width="3" height="9" viewBox="0 0 3 9" fill="none" xmlns="http://www.w3.org/2000/svg">
<path d="M1.5 1.93902C1.77614 1.93902 2 1.72882 2 1.46951C2 1.21021 1.77614 1 1.5 1C1.22386 1 1 1.21021 1 1.46951C1 1.72882 1.22386 1.93902 1.5 1.93902Z" fill="#343756" stroke="#343756" stroke-linecap="round" stroke-linejoin="round"/>
<path d="M1.5 4.91208C1.77614 4.91208 2 4.70187 2 4.44256C2 4.18326 1.77614 3.97305 1.5 3.97305C1.22386 3.97305 1 4.18326 1 4.44256C1 4.70187 1.22386 4.91208 1.5 4.91208Z" fill="#343756" stroke="#343756" stroke-linecap="round" stroke-linejoin="round"/>
<path d="M1.5 7.72918C1.77614 7.72918 2 7.51898 2 7.25967C2 7.00037 1.77614 6.79016 1.5 6.79016C1.22386 6.79016 1 7.00037 1 7.25967C1 7.51898 1.22386 7.72918 1.5 7.72918Z" fill="#343756" stroke="#343756" stroke-linecap="round" stroke-linejoin="round"/>
</svg>
