<svg width="18" height="18" viewBox="0 0 18 18" fill="none" xmlns="http://www.w3.org/2000/svg">
<path d="M16.5555 4.63318C16.534 4.15964 16.534 3.70762 16.534 3.25561C16.534 2.88969 16.2541 2.60987 15.8882 2.60987C13.1976 2.60987 11.1528 1.83498 9.45234 0.177578C9.19405 -0.0591928 8.8066 -0.0591928 8.54831 0.177578C6.84786 1.83498 4.80302 2.60987 2.11243 2.60987C1.74652 2.60987 1.46669 2.88969 1.46669 3.25561C1.46669 3.70762 1.46669 4.15964 1.44517 4.63318C1.35907 9.15336 1.22992 15.3525 8.78508 17.957L9.00033 18L9.21557 17.957C16.7492 15.3525 16.6416 9.17489 16.5555 4.63318ZM8.48373 10.8969C8.35459 11.0045 8.20391 11.0691 8.03172 11.0691H8.01019C7.83799 11.0691 7.6658 10.983 7.55817 10.8538L5.55638 8.63677L6.52499 7.77578L8.09629 9.51928L11.5833 6.20448L12.4658 7.15157L8.48373 10.8969Z" fill="#8B55FF"/>
</svg>
