<svg width="20" height="19" viewBox="0 0 20 19" fill="none" xmlns="http://www.w3.org/2000/svg">
<path d="M17.6923 0H2.30769C1.69565 0 1.10868 0.240214 0.675907 0.667797C0.243131 1.09538 0 1.67531 0 2.28V16.72C0 17.3247 0.243131 17.9046 0.675907 18.3322C1.10868 18.7598 1.69565 19 2.30769 19H17.6923C18.3043 19 18.8913 18.7598 19.3241 18.3322C19.7569 17.9046 20 17.3247 20 16.72V2.28C20 1.67531 19.7569 1.09538 19.3241 0.667797C18.8913 0.240214 18.3043 0 17.6923 0ZM3.90385 7.8926C3.8459 7.75348 3.83105 7.60049 3.86117 7.45302C3.8913 7.30555 3.96505 7.17023 4.07308 7.0642L6.38077 4.7842C6.52792 4.65969 6.71721 4.59463 6.91081 4.60202C7.10441 4.60941 7.28805 4.6887 7.42505 4.82405C7.56204 4.9594 7.6423 5.14085 7.64978 5.33212C7.65726 5.52339 7.5914 5.71041 7.46538 5.8558L6.47308 6.84H15C15.204 6.84 15.3997 6.92007 15.5439 7.0626C15.6882 7.20513 15.7692 7.39844 15.7692 7.6C15.7692 7.80156 15.6882 7.99487 15.5439 8.1374C15.3997 8.27993 15.204 8.36 15 8.36H4.61538C4.4633 8.36031 4.31454 8.31608 4.18789 8.23289C4.06124 8.14969 3.9624 8.03128 3.90385 7.8926ZM16.3115 12.3158L14.0038 14.5958C13.9349 14.6754 13.85 14.74 13.7546 14.7856C13.6592 14.8312 13.5552 14.8568 13.4493 14.8609C13.3433 14.8649 13.2377 14.8473 13.139 14.8091C13.0403 14.7709 12.9506 14.7129 12.8757 14.6389C12.8007 14.5648 12.742 14.4762 12.7034 14.3787C12.6647 14.2812 12.6468 14.1768 12.6509 14.0721C12.655 13.9675 12.681 13.8648 12.7271 13.7705C12.7733 13.6762 12.8387 13.5923 12.9192 13.5242L13.9115 12.54H5.38462C5.1806 12.54 4.98495 12.4599 4.84069 12.3174C4.69643 12.1749 4.61538 11.9816 4.61538 11.78C4.61538 11.5784 4.69643 11.3851 4.84069 11.2426C4.98495 11.1001 5.1806 11.02 5.38462 11.02H15.7692C15.9213 11.0197 16.0701 11.0639 16.1967 11.1471C16.3234 11.2303 16.4222 11.3487 16.4808 11.4874C16.5387 11.6265 16.5536 11.7795 16.5234 11.927C16.4933 12.0745 16.4196 12.2098 16.3115 12.3158Z" fill="#557AFF"/>
</svg>
